<?xml version="1.0" encoding="UTF-8"?> <svg xmlns="http://www.w3.org/2000/svg" viewBox="0 0 400 100" fill="none"><defs><style> @import url('https://fonts.googleapis.com/css2?family=Source+Serif+4:wght@400&amp;display=swap'); </style></defs><g transform="translate(10, 5) scale(0.64)"><path d="M66 75 Q64 85 62 100 Q60 120 58 135 L82 135 Q80 120 78 100 Q76 85 74 75 Q72 72 70 70 Q68 72 66 75 Z" fill="#2d4a3e"></path><path d="M70 78 Q50 70 28 60" stroke="#2d4a3e" stroke-width="3" stroke-linecap="round" fill="none"></path><path d="M70 78 Q90 70 112 60" stroke="#2d4a3e" stroke-width="3" stroke-linecap="round" fill="none"></path><path d="M70 78 Q42 60 20 45" stroke="#2d4a3e" stroke-width="2.5" stroke-linecap="round" fill="none"></path><path d="M70 78 Q98 60 120 45" stroke="#2d4a3e" stroke-width="2.5" stroke-linecap="round" fill="none"></path><path d="M70 78 Q38 50 18 30" stroke="#2d4a3e" stroke-width="2" stroke-linecap="round" fill="none"></path><path d="M70 78 Q102 50 122 30" stroke="#2d4a3e" stroke-width="2" stroke-linecap="round" fill="none"></path><path d="M70 78 Q50 45 35 20" stroke="#2d4a3e" stroke-width="2" stroke-linecap="round" fill="none"></path><path d="M70 78 Q90 45 105 20" stroke="#2d4a3e" stroke-width="2" stroke-linecap="round" fill="none"></path><path d="M70 78 Q60 50 55 18" stroke="#2d4a3e" stroke-width="1.8" stroke-linecap="round" fill="none"></path><path d="M70 78 Q80 50 85 18" stroke="#2d4a3e" stroke-width="1.8" stroke-linecap="round" fill="none"></path><path d="M70 78 L70 15" stroke="#2d4a3e" stroke-width="2" stroke-linecap="round"></path><path d="M28 60 Q20 55 15 52" stroke="#2d4a3e" stroke-width="1.5" stroke-linecap="round" fill="none"></path><path d="M112 60 Q120 55 125 52" stroke="#2d4a3e" stroke-width="1.5" stroke-linecap="round" fill="none"></path><path d="M20 45 Q14 40 10 36" stroke="#2d4a3e" stroke-width="1.2" stroke-linecap="round" fill="none"></path><path d="M120 45 Q126 40 130 36" stroke="#2d4a3e" stroke-width="1.2" stroke-linecap="round" fill="none"></path><path d="M18 30 Q12 25 10 20" stroke="#2d4a3e" stroke-width="1" stroke-linecap="round" fill="none"></path><path d="M122 30 Q128 25 130 20" stroke="#2d4a3e" stroke-width="1" stroke-linecap="round" fill="none"></path><path d="M35 20 Q28 15 25 10" stroke="#2d4a3e" stroke-width="1" stroke-linecap="round" fill="none"></path><path d="M105 20 Q112 15 115 10" stroke="#2d4a3e" stroke-width="1" stroke-linecap="round" fill="none"></path><ellipse cx="12" cy="50" rx="6" ry="3.5" fill="#4a5d52" transform="rotate(-40 12 50)"></ellipse><ellipse cx="128" cy="50" rx="6" ry="3.5" fill="#4a5d52" transform="rotate(40 128 50)"></ellipse><ellipse cx="8" cy="34" rx="5.5" ry="3" fill="#6b8f71" transform="rotate(-55 8 34)"></ellipse><ellipse cx="132" cy="34" rx="5.5" ry="3" fill="#6b8f71" transform="rotate(55 132 34)"></ellipse><ellipse cx="10" cy="18" rx="5" ry="3" fill="#4a5d52" transform="rotate(-70 10 18)"></ellipse><ellipse cx="130" cy="18" rx="5" ry="3" fill="#4a5d52" transform="rotate(70 130 18)"></ellipse><ellipse cx="23" cy="8" rx="5.5" ry="3" fill="#6b8f71" transform="rotate(-80 23 8)"></ellipse><ellipse cx="117" cy="8" rx="5.5" ry="3" fill="#6b8f71" transform="rotate(80 117 8)"></ellipse><ellipse cx="42" cy="5" rx="6" ry="3.5" fill="#4a5d52" transform="rotate(-85 42 5)"></ellipse><ellipse cx="98" cy="5" rx="6" ry="3.5" fill="#4a5d52" transform="rotate(85 98 5)"></ellipse><ellipse cx="60" cy="5" rx="6" ry="3.5" fill="#6b8f71"></ellipse><ellipse cx="80" cy="5" rx="6" ry="3.5" fill="#6b8f71"></ellipse><ellipse cx="18" cy="58" rx="5" ry="3" fill="#6b8f71" transform="rotate(-30 18 58)"></ellipse><ellipse cx="122" cy="58" rx="5" ry="3" fill="#6b8f71" transform="rotate(30 122 58)"></ellipse><ellipse cx="15" cy="42" rx="5.5" ry="3" fill="#4a5d52" transform="rotate(-45 15 42)"></ellipse><ellipse cx="125" cy="42" rx="5.5" ry="3" fill="#4a5d52" transform="rotate(45 125 42)"></ellipse><ellipse cx="20" cy="26" rx="5" ry="3" fill="#6b8f71" transform="rotate(-55 20 26)"></ellipse><ellipse cx="120" cy="26" rx="5" ry="3" fill="#6b8f71" transform="rotate(55 120 26)"></ellipse><ellipse cx="30" cy="15" rx="5.5" ry="3" fill="#4a5d52" transform="rotate(-65 30 15)"></ellipse><ellipse cx="110" cy="15" rx="5.5" ry="3" fill="#4a5d52" transform="rotate(65 110 15)"></ellipse><ellipse cx="48" cy="10" rx="5" ry="3" fill="#6b8f71" transform="rotate(-75 48 10)"></ellipse><ellipse cx="92" cy="10" rx="5" ry="3" fill="#6b8f71" transform="rotate(75 92 10)"></ellipse><ellipse cx="28" cy="52" rx="5" ry="3" fill="#4a5d52" transform="rotate(-25 28 52)"></ellipse><ellipse cx="112" cy="52" rx="5" ry="3" fill="#4a5d52" transform="rotate(25 112 52)"></ellipse><ellipse cx="25" cy="38" rx="4.5" ry="2.5" fill="#6b8f71" transform="rotate(-35 25 38)"></ellipse><ellipse cx="115" cy="38" rx="4.5" ry="2.5" fill="#6b8f71" transform="rotate(35 115 38)"></ellipse><ellipse cx="32" cy="28" rx="5" ry="3" fill="#4a5d52" transform="rotate(-40 32 28)"></ellipse><ellipse cx="108" cy="28" rx="5" ry="3" fill="#4a5d52" transform="rotate(40 108 28)"></ellipse><ellipse cx="42" cy="20" rx="4.5" ry="2.5" fill="#6b8f71" transform="rotate(-20 42 20)"></ellipse><ellipse cx="98" cy="20" rx="4.5" ry="2.5" fill="#6b8f71" transform="rotate(20 98 20)"></ellipse><ellipse cx="55" cy="15" rx="5" ry="3" fill="#4a5d52" transform="rotate(-10 55 15)"></ellipse><ellipse cx="85" cy="15" rx="5" ry="3" fill="#4a5d52" transform="rotate(10 85 15)"></ellipse><ellipse cx="38" cy="42" rx="4.5" ry="2.5" fill="#6b8f71" transform="rotate(-18 38 42)"></ellipse><ellipse cx="102" cy="42" rx="4.5" ry="2.5" fill="#6b8f71" transform="rotate(18 102 42)"></ellipse><ellipse cx="48" cy="32" rx="5" ry="3" fill="#4a5d52" transform="rotate(-12 48 32)"></ellipse><ellipse cx="92" cy="32" rx="5" ry="3" fill="#4a5d52" transform="rotate(12 92 32)"></ellipse><ellipse cx="58" cy="25" rx="4.5" ry="2.5" fill="#6b8f71" transform="rotate(-5 58 25)"></ellipse><ellipse cx="82" cy="25" rx="4.5" ry="2.5" fill="#6b8f71" transform="rotate(5 82 25)"></ellipse><ellipse cx="65" cy="20" rx="4" ry="2.5" fill="#4a5d52" transform="rotate(-3 65 20)"></ellipse><ellipse cx="75" cy="20" rx="4" ry="2.5" fill="#4a5d52" transform="rotate(3 75 20)"></ellipse><ellipse cx="70" cy="12" rx="6" ry="3.5" fill="#8b6914"></ellipse></g><text x="115" y="52" font-family="'Source Serif 4', 'Georgia', serif" font-size="32" font-weight="400" fill="#2d4a3e">Psicólogos</text><text x="115" y="82" font-family="'Source Serif 4', 'Georgia', serif" font-size="32" font-weight="400" fill="#8b6914">Protego</text></svg> 